<svg width="102" height="90" xmlns="http://www.w3.org/2000/svg" xmlns:xlink="http://www.w3.org/1999/xlink" xml:space="preserve" overflow="hidden"><g transform="translate(-391 -873)"><path d="M25.7938 35.5123 38.8343 43.0412 50.5785 36.2607 14.0496 15.1707 14.0496 57.3507 25.7938 50.5702 25.7938 35.5123Z" fill="#009CDE" transform="matrix(1.00833 0 0 1 391 873.041)"/><path d="M75.3632 35.5123 62.3228 43.0412 50.5785 36.2607 87.1075 15.1707 87.1075 57.3507 75.3632 50.5702 75.3632 35.5123Z" fill="#009CDE" transform="matrix(1.00833 0 0 1 391 873.041)"/><path d="M14.0496 63.2724 16.8347 63.2724 19.9219 68.1243 23.0091 63.2724 25.793 63.2724 25.793 74.7466 23.2272 74.7466 23.2272 67.3616 19.9219 72.2625 19.8547 72.2625 16.5835 67.4104 16.5835 74.7458 14.0496 74.7458Z" fill="#002855" transform="matrix(1.00833 0 0 1 391 873.041)"/><path d="M32.1943 63.2724 34.5702 63.2724 39.59 74.7466 36.8953 74.7466 35.8602 72.3446 30.8341 72.3446 29.8012 74.7466 27.1745 74.7466ZM34.9405 70.1154 33.3483 66.3049 31.7546 70.1154Z" fill="#002855" transform="matrix(1.00833 0 0 1 391 873.041)"/><path d="M40.9923 63.2724 46.4272 63.2724C47.9389 63.2724 49.111 63.6822 49.8922 64.4362 50.5545 65.0753 50.911 66.0222 50.911 67.1037L50.911 67.1362C50.911 68.9889 49.8753 70.1975 48.3636 70.7383L51.268 74.7466 48.2109 74.7466 45.663 71.1644 43.6078 71.1644 43.6078 74.7466 40.9923 74.7466ZM46.2577 68.9352C47.5311 68.9352 48.2617 68.2349 48.2617 67.2673L48.2617 67.2347C48.2617 66.1529 47.4806 65.5496 46.2066 65.5496L43.6078 65.5496 43.6078 68.9344Z" fill="#002855" transform="matrix(1.00833 0 0 1 391 873.041)"/><path d="M53.2 63.2724 62.0341 63.2724 62.0341 65.5178 55.7601 65.5178 55.7601 67.8454 61.2821 67.8454 61.2821 70.0916 55.7601 70.0916 55.7601 72.502 62.1184 72.502 62.1184 74.7474 53.2 74.7474Z" fill="#002855" transform="matrix(1.00833 0 0 1 391 873.041)"/><path d="M64.3882 63.2724 66.9655 63.2724 66.9655 72.4516 72.7161 72.4516 72.7161 74.7466 64.3882 74.7466Z" fill="#002855" transform="matrix(1.00833 0 0 1 391 873.041)"/><path d="M74.544 63.2724 77.1213 63.2724 77.1213 72.4516 82.8727 72.4516 82.8727 74.7466 74.544 74.7466Z" fill="#002855" transform="matrix(1.00833 0 0 1 391 873.041)"/><path d="M84.5307 63.2724 87.108 63.2724 87.108 74.7466 84.5307 74.7466Z" fill="#002855" transform="matrix(1.00833 0 0 1 391 873.041)"/></g></svg>